<svg xmlns="http://www.w3.org/2000/svg" viewBox="0 0 1200 630" role="img" aria-label="Angel Cilfone portfolio social card">
  <defs>
    <linearGradient id="bg" x1="0%" y1="0%" x2="100%" y2="100%">
      <stop offset="0%" stop-color="#0a0a0f" />
      <stop offset="100%" stop-color="#141423" />
    </linearGradient>
    <linearGradient id="g" x1="0%" y1="0%" x2="100%" y2="100%">
      <stop offset="0%" stop-color="#7c3aed" />
      <stop offset="100%" stop-color="#06b6d4" />
    </linearGradient>
  </defs>
  <rect width="1200" height="630" fill="url(#bg)" />
  <circle cx="180" cy="120" r="180" fill="#7c3aed" opacity="0.16" />
  <circle cx="1080" cy="540" r="220" fill="#06b6d4" opacity="0.14" />
  <circle cx="920" cy="120" r="120" fill="#a855f7" opacity="0.08" />
  <g fill="none" stroke="#ffffff" opacity="0.08">
    <path d="M0 70H1200" />
    <path d="M0 140H1200" />
    <path d="M0 210H1200" />
    <path d="M0 280H1200" />
    <path d="M0 350H1200" />
    <path d="M0 420H1200" />
    <path d="M0 490H1200" />
    <path d="M0 560H1200" />
    <path d="M90 0V630" />
    <path d="M180 0V630" />
    <path d="M270 0V630" />
    <path d="M360 0V630" />
    <path d="M450 0V630" />
    <path d="M540 0V630" />
    <path d="M630 0V630" />
    <path d="M720 0V630" />
    <path d="M810 0V630" />
    <path d="M900 0V630" />
    <path d="M990 0V630" />
    <path d="M1080 0V630" />
    <path d="M1170 0V630" />
  </g>
  <rect x="90" y="90" width="1020" height="450" rx="36" fill="#10101a" fill-opacity="0.74" stroke="#ffffff" stroke-opacity="0.08" />
  <text x="130" y="220" fill="#e8e8f0" font-size="34" font-family="Arial, sans-serif" letter-spacing="8">FULL STACK DEVELOPER</text>
  <text x="130" y="340" fill="url(#g)" font-size="92" font-weight="700" font-family="Arial, sans-serif">Angel Cilfone</text>
  <text x="130" y="415" fill="#b8b8cc" font-size="36" font-family="Arial, sans-serif">Production systems from architecture to deployment.</text>
  <text x="130" y="490" fill="#b8b8cc" font-size="28" font-family="Arial, sans-serif">Rosario, Argentina  |  Backend, SaaS, integrations, cloud</text>
  <g transform="translate(905 170)">
    <rect width="150" height="150" rx="34" fill="#0a0a0f" stroke="#ffffff" stroke-opacity="0.08" />
    <path d="M75 24 105 112H91l-7-20H66l-7 20H45L75 24Zm0 24-5.2 26h10.4L75 48Z" fill="url(#g)" />
    <path d="M112 39a32 32 0 0 0-23-10.4v12a20 20 0 1 1 0 40v12a32 32 0 0 0 23-53.6Z" fill="#e8e8f0" opacity="0.92" />
  </g>
</svg>
